<svg width="40" height="40" viewBox="0 0 40 40" xmlns="http://www.w3.org/2000/svg">
  <!-- Professional User Avatar -->
  <defs>
    <linearGradient id="avatarBg" x1="0%" y1="0%" x2="100%" y2="100%">
      <stop offset="0%" style="stop-color:#4A90E2;stop-opacity:1" />
      <stop offset="100%" style="stop-color:#357ABD;stop-opacity:1" />
    </linearGradient>
    <linearGradient id="skinTone" x1="0%" y1="0%" x2="100%" y2="100%">
      <stop offset="0%" style="stop-color:#FDBCB4;stop-opacity:1" />
      <stop offset="100%" style="stop-color:#F4A688;stop-opacity:1" />
    </linearGradient>
  </defs>
  
  <!-- Background Circle -->
  <circle cx="20" cy="20" r="20" fill="url(#avatarBg)"/>
  
  <!-- Head -->
  <circle cx="20" cy="16" r="8" fill="url(#skinTone)"/>
  
  <!-- Hair -->
  <path d="M 12 12 Q 20 8 28 12 Q 28 16 20 16 Q 12 16 12 12" fill="#4A4A4A"/>
  
  <!-- Eyes -->
  <circle cx="17" cy="15" r="1" fill="#2C2C2C"/>
  <circle cx="23" cy="15" r="1" fill="#2C2C2C"/>
  
  <!-- Nose -->
  <ellipse cx="20" cy="17" rx="0.5" ry="1" fill="#E8A082"/>
  
  <!-- Mouth -->
  <path d="M 18 19 Q 20 20 22 19" stroke="#2C2C2C" stroke-width="0.5" fill="none"/>
  
  <!-- Shirt/Collar -->
  <path d="M 10 32 Q 20 28 30 32 L 30 40 L 10 40 Z" fill="#FFFFFF"/>
  <path d="M 10 32 Q 20 28 30 32 L 28 35 Q 20 31 12 35 Z" fill="#E0E0E0"/>
  
  <!-- Tie -->
  <path d="M 18 28 L 22 28 L 21 36 L 19 36 Z" fill="#C41E3A"/>
  <path d="M 18 28 L 22 28 L 21 30 L 19 30 Z" fill="#E52822"/>
</svg>
